- 
http://www.Speed.Cd      fast  and The Hottest Private Tracker on the net

   signup is open now

Please Seed back to make the speed Faster!!!

------------------nfo--------------------------
-








































          
          
              
              
                    
                    
                    
                    

Cowsboys.And.Aliens.2011.BRRip.XviD.AC3-SiC

Poster:
[img]http://img69.imageshack.us/img69/9206/mv5bmtm1mzkynzq3ov5bml5y.jpg[/img]

IMDB Link: 
http://www.imdb.com/title/tt0409847/

Description:
A spaceship arrives in Arizona, 1873, to take over the Earth, starting with the Wild West region. A posse of cowboys and natives are all that stand in their way. 

General
Complete name                    : Cowboys.And.Aliens.2011.EXTENDED.BRRip.XviD.AC3-SiC.avi
Format                           : AVI
Format/Info                      : Audio Video Interleave
File size                        : 1.37 GiB
Duration                         : 2h 15mn
Overall bit rate                 : 1 452 Kbps

Video
ID                               : 0
Format                           : MPEG-4 Visual
Format profile                   : Advanced Simple@L5
Format settings, BVOP            : Yes
Format settings, QPel            : No
Format settings, GMC             : No warppoints
Format settings, Matrix          : Default (MPEG)
Muxing mode                      : Packed bitstream
Codec ID                         : XVID
Codec ID/Hint                    : XviD
Duration                         : 2h 15mn
Bit rate                         : 1 060 Kbps
Width                            : 720 pixels
Height                           : 304 pixels
Display aspect ratio             : 2.35:1
Frame rate                       : 23.976 fps
Color space                      : YUV
Chroma subsampling               : 4:2:0
Bit depth                        : 8 bits
Scan type                        : Progressive
Bits/(Pixel*Frame)               : 0.202
Stream size                      : 1.00 GiB (73%)
Writing library                  : XviD 64

Audio
ID                               : 1
Format                           : AC-3
Format/Info                      : Audio Coding 3
Mode extension                   : CM (complete main)
Codec ID                         : 2000
Duration                         : 2h 15mn
Bit rate mode                    : Constant
Bit rate                         : 384 Kbps
Channel(s)                       : 6 channels
Channel positions                : Front: L C R, Side: L R, LFE
Sampling rate                    : 48.0 KHz
Bit depth                        : 16 bits
Stream size                      : 371 MiB (26%)
Alignment                        : Aligned on interleaves
Interleave, duration             : 64 ms (1.53 video frames)
Interleave, preload duration     : 192 ms
Title                            : .720p.bluray.x264-crossbow - [3] English


Screenshots:
[IMG]http://img69.imageshack.us/img69/5724/snap1s.png[/IMG]
[IMG]http://img823.imageshack.us/img823/2888/snap2w.png[/IMG]
[IMG]http://img535.imageshack.us/img535/8641/snap3b.png[/IMG]
[IMG]http://img94.imageshack.us/img94/9485/snap4on.png[/IMG]
[IMG]http://img52.imageshack.us/img52/7044/snap5d.png[/IMG]


Note: did my thing turned out nice... English srt included!

Source:  720p EXTENDED CROSSBOW

Enjoy!

Respects to CM8, Rx, THC, ELEKTRI4KA, PA, YeFsTe, Box, MrRep and everyone in the struggle...